<?xml version="1.0" encoding="utf-8"?>
<!-- Generator: Adobe Illustrator 17.0.0, SVG Export Plug-In . SVG Version: 6.00 Build 0)  -->
<!DOCTYPE svg PUBLIC "-//W3C//DTD SVG 1.1//EN" "http://www.w3.org/Graphics/SVG/1.1/DTD/svg11.dtd" [
	<!ENTITY ns_extend "http://ns.adobe.com/Extensibility/1.0/">
	<!ENTITY ns_ai "http://ns.adobe.com/AdobeIllustrator/10.0/">
	<!ENTITY ns_graphs "http://ns.adobe.com/Graphs/1.0/">
	<!ENTITY ns_vars "http://ns.adobe.com/Variables/1.0/">
	<!ENTITY ns_imrep "http://ns.adobe.com/ImageReplacement/1.0/">
	<!ENTITY ns_sfw "http://ns.adobe.com/SaveForWeb/1.0/">
	<!ENTITY ns_custom "http://ns.adobe.com/GenericCustomNamespace/1.0/">
	<!ENTITY ns_adobe_xpath "http://ns.adobe.com/XPath/1.0/">
]>
<svg version="1.1" id="Layer_1" xmlns:x="&ns_extend;" xmlns:i="&ns_ai;" xmlns:graph="&ns_graphs;"
	 xmlns="http://www.w3.org/2000/svg" xmlns:xlink="http://www.w3.org/1999/xlink" x="0px" y="0px" width="208.884px"
	 height="15.432px" viewBox="0 0 208.884 15.432" enable-background="new 0 0 208.884 15.432" xml:space="preserve">
<metadata>
	<sfw  xmlns="&ns_sfw;">
		<slices></slices>
		<sliceSourceBounds  height="1435.671" width="1366.512" y="-1289.076" x="0" bottomLeftOrigin="true"></sliceSourceBounds>
	</sfw>
</metadata>
<g>
	<path fill="#fff" d="M8.692,13.689c-0.882,0.86-2.184,1.47-3.758,1.47H0V0.272h4.934c1.575,0,2.876,0.609,3.758,1.47
		c1.638,1.575,1.806,3.885,1.806,5.963C10.498,9.784,10.33,12.114,8.692,13.689z M7.895,2.456c-0.756-0.714-1.848-1.112-2.96-1.112
		H1.092v12.744h3.842c1.113,0,2.205-0.398,2.96-1.112C9.28,11.632,9.385,9.49,9.385,7.705C9.385,5.921,9.28,3.779,7.895,2.456z"/>
	<path fill="#fff" d="M18.186,15.159V0.272h1.113v14.887H18.186z"/>
	<path fill="#fff" d="M37.462,15.159l-0.231-2.289c-0.777,1.596-2.562,2.562-4.346,2.562c-1.596,0-3.002-0.65-3.926-1.574
		c-1.596-1.575-1.89-4.011-1.89-6.131c0-2.142,0.273-4.515,1.89-6.11C29.903,0.692,31.289,0,32.885,0
		c3.065,0,5.165,1.868,5.375,4.43h-1.113c-0.084-0.966-0.441-1.616-0.987-2.226c-0.777-0.84-1.974-1.134-3.254-1.134
		s-2.31,0.462-3.086,1.218c-1.386,1.365-1.617,3.611-1.617,5.438c0,1.806,0.231,4.157,1.638,5.479
		c0.798,0.756,1.827,1.155,3.044,1.155c1.197,0,2.31-0.462,2.981-1.176c1.197-1.26,1.302-3.023,1.302-4.661H32.78V7.453h5.501v7.706
		H37.462z"/>
	<path fill="#fff" d="M46.473,15.159V0.272h1.113v14.887H46.473z"/>
	<path fill="#fff" d="M60.185,1.322v13.837h-1.092V1.322h-4.724v-1.05H64.93v1.05H60.185z"/>
	<path fill="#fff" d="M79.462,15.159l-1.512-3.927h-7.202l-1.47,3.927h-1.134l5.648-14.887h1.071l5.711,14.887H79.462z
		 M74.318,1.784l-3.17,8.42h6.404L74.318,1.784z"/>
	<path fill="#fff" d="M87.212,15.159V0.272h1.092V14.13h7.727v1.029H87.212z"/>
	<path fill="#fff" d="M120.286,15.159l-1.512-3.927h-7.202l-1.47,3.927h-1.134l5.648-14.887h1.071l5.711,14.887H120.286z
		 M115.142,1.784l-3.17,8.42h6.404L115.142,1.784z"/>
	<path fill="#fff" d="M137.147,15.159l-0.23-2.289c-0.777,1.596-2.562,2.562-4.346,2.562c-1.596,0-3.002-0.65-3.926-1.574
		c-1.596-1.575-1.89-4.011-1.89-6.131c0-2.142,0.273-4.515,1.89-6.11C129.589,0.692,130.975,0,132.571,0
		c3.065,0,5.165,1.868,5.375,4.43h-1.113c-0.084-0.966-0.441-1.616-0.986-2.226c-0.777-0.84-1.974-1.134-3.255-1.134
		s-2.31,0.462-3.086,1.218c-1.386,1.365-1.617,3.611-1.617,5.438c0,1.806,0.231,4.157,1.638,5.479
		c0.798,0.756,1.827,1.155,3.044,1.155c1.197,0,2.31-0.462,2.981-1.176c1.197-1.26,1.302-3.023,1.302-4.661h-4.389V7.453h5.501
		v7.706H137.147z"/>
	<path fill="#fff" d="M146.159,15.159V0.272h9.532v1.05h-8.419v5.459h7.411v1.05h-7.411v6.278h8.419v1.05H146.159z"/>
	<path fill="#fff" d="M173.017,15.159l-8.63-13.186v13.186h-1.092V0.272h1.239l8.65,13.165V0.272h1.07v14.887H173.017z"/>
	<path fill="#fff" d="M187.612,15.432c-1.428,0-2.897-0.588-3.926-1.616c-1.596-1.617-1.743-3.989-1.743-6.11
		c0-2.12,0.147-4.472,1.743-6.089C184.715,0.588,186.185,0,187.612,0c2.961,0,5.061,2.078,5.291,4.829h-1.134
		c-0.188-2.205-1.806-3.759-4.157-3.759c-1.322,0-2.33,0.462-3.129,1.281c-1.344,1.386-1.406,3.569-1.406,5.354
		c0,1.785,0.084,3.989,1.428,5.375c0.818,0.84,1.869,1.281,3.107,1.281c2.352,0,3.969-1.554,4.157-3.759h1.134
		C192.673,13.354,190.573,15.432,187.612,15.432z"/>
	<path fill="#fff" d="M203.739,9.259v5.9h-1.07v-5.9l-5.145-8.986h1.176l4.535,7.916l4.535-7.916h1.113L203.739,9.259z"/>
</g>
</svg>
