<?xml version="1.0" encoding="utf-8"?>
<!-- Generator: Adobe Illustrator 17.0.0, SVG Export Plug-In . SVG Version: 6.00 Build 0)  -->
<!DOCTYPE svg PUBLIC "-//W3C//DTD SVG 1.1//EN" "http://www.w3.org/Graphics/SVG/1.1/DTD/svg11.dtd" [
	<!ENTITY ns_extend "http://ns.adobe.com/Extensibility/1.0/">
	<!ENTITY ns_ai "http://ns.adobe.com/AdobeIllustrator/10.0/">
	<!ENTITY ns_graphs "http://ns.adobe.com/Graphs/1.0/">
	<!ENTITY ns_vars "http://ns.adobe.com/Variables/1.0/">
	<!ENTITY ns_imrep "http://ns.adobe.com/ImageReplacement/1.0/">
	<!ENTITY ns_sfw "http://ns.adobe.com/SaveForWeb/1.0/">
	<!ENTITY ns_custom "http://ns.adobe.com/GenericCustomNamespace/1.0/">
	<!ENTITY ns_adobe_xpath "http://ns.adobe.com/XPath/1.0/">
]>
<svg version="1.1" id="Layer_1" xmlns:x="&ns_extend;" xmlns:i="&ns_ai;" xmlns:graph="&ns_graphs;"
	 xmlns="http://www.w3.org/2000/svg" xmlns:xlink="http://www.w3.org/1999/xlink" x="0px" y="0px" width="304.589px"
	 height="139.56px" viewBox="0 0 304.589 139.56" enable-background="new 0 0 304.589 139.56" xml:space="preserve">
<metadata>
	<sfw  xmlns="&ns_sfw;">
		<slices></slices>
		<sliceSourceBounds  height="1292.581" width="1257.679" y="-1228.289" x="38.907" bottomLeftOrigin="true"></sliceSourceBounds>
		<optimizationSettings>
			<targetSettings  fileFormat="PNG24Format" targetSettingsID="0">
				<PNG24Format  transparency="true" filtered="false" matteColor="#FFFFFF" noMatteColor="false" interlaced="false">
					</PNG24Format>
			</targetSettings>
		</optimizationSettings>
	</sfw>
</metadata>
<g>
	<line fill="none" stroke="#00BFA5" stroke-miterlimit="10" x1="59.095" y1="86.546" x2="88.014" y2="66.422"/>
	<g>
		<g>
			<g>
				<path fill="none" stroke="#00BFA5" stroke-miterlimit="10" d="M113.98,130.256c-1.65,0-3-1.35-3-3v-72c0-1.65,1.35-3,3-3h37.875
					c1.65,0,3,1.35,3,3v72c0,1.65-1.35,3-3,3H113.98z"/>
			</g>
			<g>
				<path fill="none" stroke="#00BFA5" stroke-miterlimit="10" d="M113.979,138.446c-1.65,0-3-1.35-3-3v-88.38c0-1.65,1.35-3,3-3
					h37.875c1.65,0,3,1.35,3,3v88.38c0,1.65-1.35,3-3,3H113.979z"/>
			</g>
			<circle fill="none" stroke="#00BFA5" stroke-miterlimit="10" cx="132.916" cy="134.294" r="4.038"/>
			<g>
				<path fill="none" stroke="#00BFA5" stroke-miterlimit="10" d="M171.078,130.256c-2.2,0-4-1.8-4-4V12.576c0-2.2,1.8-4,4-4h83.26
					c2.2,0,4,1.8,4,4v113.68c0,2.2-1.8,4-4,4H171.078z"/>
			</g>
			<g>
				<path fill="none" stroke="#00BFA5" stroke-miterlimit="10" d="M171.077,138.332c-2.2,0-4-1.8-4-4V4.5c0-2.2,1.8-4,4-4h83.26
					c2.2,0,4,1.8,4,4v129.833c0,2.2-1.8,4-4,4H171.077z"/>
			</g>
			<circle fill="none" stroke="#00BFA5" stroke-miterlimit="10" cx="212.707" cy="134.294" r="4.038"/>
			<line fill="none" stroke="#00BFA5" stroke-miterlimit="10" x1="234.157" y1="24.249" x2="251.248" y2="24.249"/>
			<line fill="none" stroke="#00BFA5" stroke-miterlimit="10" x1="234.157" y1="18.152" x2="251.248" y2="18.152"/>
			<line fill="none" stroke="#00BFA5" stroke-miterlimit="10" x1="234.157" y1="24.249" x2="251.248" y2="24.249"/>
			<line fill="none" stroke="#00BFA5" stroke-miterlimit="10" x1="234.157" y1="30.347" x2="251.248" y2="30.347"/>
			<line fill="none" stroke="#00BFA5" stroke-miterlimit="10" x1="234.157" y1="30.347" x2="251.248" y2="30.347"/>
			<line fill="none" stroke="#00BFA5" stroke-miterlimit="10" x1="166.777" y1="39.849" x2="258.337" y2="39.849"/>
			<rect x="174.357" y="18.152" fill="none" stroke="#00BFA5" stroke-miterlimit="10" width="38.2" height="13.118"/>
			<rect x="174.357" y="48.832" fill="none" stroke="#00BFA5" stroke-miterlimit="10" width="59.8" height="13.118"/>
			<rect x="174.357" y="69.416" fill="none" stroke="#00BFA5" stroke-miterlimit="10" width="35.36" height="13.118"/>
			<rect x="216.745" y="69.416" fill="none" stroke="#00BFA5" stroke-miterlimit="10" width="17.412" height="33.093"/>
			<rect x="174.357" y="89.392" fill="none" stroke="#00BFA5" stroke-miterlimit="10" width="35.36" height="13.118"/>
			<rect x="174.357" y="109.789" fill="none" stroke="#00BFA5" stroke-miterlimit="10" width="59.8" height="20.467"/>
			<line fill="none" stroke="#00BFA5" stroke-miterlimit="10" x1="174.357" y1="130.256" x2="234.157" y2="109.789"/>
			<line fill="none" stroke="#00BFA5" stroke-miterlimit="10" x1="174.357" y1="109.789" x2="234.157" y2="130.256"/>
			<circle fill="none" stroke="#00BFA5" stroke-miterlimit="10" cx="244.68" cy="55.14" r="3.521"/>
			<circle fill="none" stroke="#00BFA5" stroke-miterlimit="10" cx="244.68" cy="69.416" r="3.521"/>
			<circle fill="none" stroke="#00BFA5" stroke-miterlimit="10" cx="244.68" cy="83.693" r="3.521"/>
			<circle fill="none" stroke="#00BFA5" stroke-miterlimit="10" cx="244.68" cy="97.747" r="3.521"/>
			<line fill="none" stroke="#00BFA5" stroke-miterlimit="10" x1="154.854" y1="65.895" x2="110.98" y2="65.895"/>
			<line fill="none" stroke="#00BFA5" stroke-miterlimit="10" x1="142.374" y1="57.121" x2="150.434" y2="57.121"/>
			<line fill="none" stroke="#00BFA5" stroke-miterlimit="10" x1="142.374" y1="61.281" x2="150.434" y2="61.281"/>
			<rect x="119.754" y="72.938" fill="none" stroke="#00BFA5" stroke-miterlimit="10" width="26.325" height="18.319"/>
			<rect x="119.755" y="97.747" fill="none" stroke="#00BFA5" stroke-miterlimit="10" width="26.325" height="9.159"/>
			<rect x="119.755" y="112.909" fill="none" stroke="#00BFA5" stroke-miterlimit="10" width="26.325" height="9.159"/>
			<rect x="49.456" y="43.703" fill="none" stroke="#00BFA5" stroke-miterlimit="10" width="48.198" height="85.686"/>
			<line fill="none" stroke="#00BFA5" stroke-miterlimit="10" x1="97.654" y1="58.686" x2="49.456" y2="58.686"/>
			<line fill="none" stroke="#00BFA5" stroke-miterlimit="10" x1="83.944" y1="49.048" x2="92.798" y2="49.048"/>
			<line fill="none" stroke="#00BFA5" stroke-miterlimit="10" x1="83.944" y1="53.618" x2="92.798" y2="53.618"/>
			<rect x="59.095" y="66.422" fill="none" stroke="#00BFA5" stroke-miterlimit="10" width="28.919" height="20.124"/>
			<rect x="59.096" y="93.676" fill="none" stroke="#00BFA5" stroke-miterlimit="10" width="11.737" height="10.062"/>
			<rect x="59.096" y="110.333" fill="none" stroke="#00BFA5" stroke-miterlimit="10" width="28.919" height="10.062"/>
			<path fill="none" stroke="#00BFA5" stroke-miterlimit="10" d="M73.555,138.261"/>
			<g>
				<path fill="none" stroke="#00BFA5" stroke-miterlimit="10" d="M97.654,40.267c0-0.55,0-1.45,0-2c0,0,0-3.56-24.099-3.56
					c-24.099,0-24.099,3.56-24.099,3.56c0,0.55,0,1.152,0,1.337s0,0.337,0,0.337s0,0.45,0,1v92.557c0,0.55,0,1.45,0,2
					c0,0,0,3.561,24.099,3.561c24.099,0,24.099-3.561,24.099-3.561c0-0.55,0-1.152,0-1.337s0-0.337,0-0.337s0-0.45,0-1V40.267z"/>
			</g>
			<rect x="76.277" y="93.676" fill="none" stroke="#00BFA5" stroke-miterlimit="10" width="11.737" height="10.062"/>
		</g>
	</g>
	<circle fill="none" stroke="#00BFA5" stroke-miterlimit="10" cx="88.015" cy="120.023" r="5.238"/>
	<g>
		<path fill="none" stroke="#00BFA5" stroke-miterlimit="10" d="M301.09,123.541c0,4.95-4.05,9-9,9h-17.4c-4.95,0-9-4.05-9-9V99.654
			c0-4.95,4.05-9,9-9h17.4c4.95,0,9,4.05,9,9V123.541z"/>
	</g>
	<g>
		<path fill="none" stroke="#00BFA5" stroke-miterlimit="10" d="M301.09,123.541c0,4.95-4.05,9-9,9h-17.4c-4.95,0-9-4.05-9-9V99.654
			c0-4.95,4.05-9,9-9h17.4c4.95,0,9,4.05,9,9V123.541z"/>
	</g>
	<path fill="none" stroke="#00BFA5" stroke-miterlimit="10" d="M292.54,87.263c0-1.32-1.08-2.4-2.4-2.4h-13.5
		c-1.32,0-2.4,1.08-2.4,2.4v0.991v2.4h18.3v-2.4V87.263z"/>
	<path fill="none" stroke="#00BFA5" stroke-miterlimit="10" d="M274.24,135.932c0,1.32,1.08,2.4,2.4,2.4h13.5
		c1.32,0,2.4-1.08,2.4-2.4v-0.991v-2.4h-18.3v2.4V135.932z"/>
	<g>
		<path fill="#00BFA5" d="M276.621,110.721h-0.841l1.849-10.573l-3.278,2.134l0.185-1.008l3.379-2.236h0.757L276.621,110.721z"/>
		<path fill="#00BFA5" d="M289.727,108.048h-1.63l-0.487,2.673h-0.858l0.487-2.673h-5.512l0.151-0.925l6.185-8.085h0.991
			l-6.252,8.169h4.571l0.639-3.614h0.858l-0.639,3.614h1.63L289.727,108.048z"/>
		<path fill="#00BFA5" d="M293.083,110.721h-1.395l0.268-1.446h1.396L293.083,110.721z M294.293,103.762h-1.395l0.268-1.446h1.396
			L294.293,103.762z"/>
		<path fill="#00BFA5" d="M280.218,121.248h-1.63l-0.488,2.673h-0.858l0.487-2.673h-5.512l0.151-0.925l6.185-8.085h0.991
			l-6.252,8.169h4.571l0.639-3.614h0.858l-0.639,3.614h1.63L280.218,121.248z"/>
		<path fill="#00BFA5" d="M283.171,120.811c0,1.597,1.059,2.538,2.623,2.538c0.824,0,1.479-0.353,1.95-0.84
			c0.722-0.723,1.058-1.815,1.058-2.807c0-1.547-0.857-2.538-2.438-2.538c-0.907,0-1.815,0.369-2.404,1.076l-0.957-0.387l1.31-5.614
			h6.17l-0.135,0.79h-5.379l-1.059,4.421c0.622-0.739,1.581-1.076,2.538-1.076c2,0,3.211,1.243,3.211,3.244
			c0,1.429-0.505,2.756-1.479,3.614c-0.622,0.538-1.43,0.925-2.421,0.925c-1.143,0-2.085-0.37-2.706-1.093
			c-0.455-0.52-0.757-1.26-0.757-2.118c0-0.168,0.018-0.336,0.034-0.504h0.857C283.171,120.559,283.171,120.694,283.171,120.811z"/>
	</g>
	<path fill="none" stroke="#00BFA5" stroke-miterlimit="10" d="M302.846,112.239c0.684,0,1.243-0.578,1.243-1.284v-7.223
		c0-0.706-0.559-1.284-1.243-1.284h-0.513h-1.243v9.791h1.243H302.846z"/>
	<circle fill="none" stroke="#00BFA5" stroke-miterlimit="10" cx="20.803" cy="115.364" r="20.303"/>
	<circle fill="none" stroke="#00BFA5" stroke-miterlimit="10" cx="20.803" cy="115.364" r="20.303"/>
	<g>
		<path fill="#00BFA5" d="M15.163,114.633h-0.701l1.541-8.811l-2.731,1.778l0.154-0.84l2.815-1.863h0.631L15.163,114.633z"/>
		<path fill="#00BFA5" d="M26.084,112.406h-1.358l-0.406,2.228h-0.715l0.406-2.228h-4.594l0.126-0.771l5.154-6.737h0.826
			l-5.21,6.808h3.81l0.532-3.012h0.715l-0.532,3.012h1.358L26.084,112.406z"/>
		<path fill="#00BFA5" d="M28.881,114.633h-1.162l0.224-1.205h1.163L28.881,114.633z M29.889,108.834h-1.162l0.224-1.205h1.163
			L29.889,108.834z"/>
		<path fill="#00BFA5" d="M18.16,123.406h-1.358l-0.406,2.228H15.68l0.406-2.228h-4.594l0.126-0.771l5.154-6.737h0.826l-5.21,6.808
			h3.81l0.532-3.012h0.715l-0.532,3.012h1.358L18.16,123.406z"/>
		<path fill="#00BFA5" d="M20.621,123.041c0,1.331,0.883,2.115,2.186,2.115c0.687,0,1.232-0.294,1.625-0.7
			c0.602-0.603,0.882-1.513,0.882-2.339c0-1.289-0.714-2.115-2.031-2.115c-0.756,0-1.513,0.308-2.003,0.896l-0.798-0.322
			l1.092-4.679h5.142l-0.112,0.658H22.12l-0.883,3.685c0.519-0.616,1.317-0.896,2.115-0.896c1.667,0,2.676,1.036,2.676,2.703
			c0,1.19-0.421,2.297-1.232,3.012c-0.519,0.448-1.191,0.771-2.018,0.771c-0.952,0-1.737-0.309-2.255-0.911
			c-0.379-0.434-0.631-1.05-0.631-1.765c0-0.14,0.015-0.28,0.028-0.42h0.714C20.621,122.831,20.621,122.944,20.621,123.041z"/>
	</g>
	<circle fill="none" stroke="#00BFA5" stroke-miterlimit="10" cx="20.803" cy="115.364" r="20.303"/>
	<path fill="none" stroke="#00BFA5" stroke-miterlimit="10" d="M20.803,135.666c-3.296,0-6.398-0.803-9.15-2.197v1.701v0.991
		c0,1.32,1.08,2.4,2.4,2.4h13.5c1.32,0,2.4-1.08,2.4-2.4v-0.991v-1.701C27.201,134.864,24.098,135.666,20.803,135.666z"/>
	<path fill="none" stroke="#00BFA5" stroke-miterlimit="10" d="M20.803,95.061c3.296,0,6.398,0.803,9.15,2.196v-1.701v-0.991
		c0-1.32-1.08-2.4-2.4-2.4h-13.5c-1.32,0-2.4,1.08-2.4,2.4v0.991v1.701C14.405,95.864,17.507,95.061,20.803,95.061z"/>
</g>
</svg>
