<?xml version="1.0" encoding="utf-8"?>
<!-- Generator: Adobe Illustrator 17.0.0, SVG Export Plug-In . SVG Version: 6.00 Build 0)  -->
<!DOCTYPE svg PUBLIC "-//W3C//DTD SVG 1.1//EN" "http://www.w3.org/Graphics/SVG/1.1/DTD/svg11.dtd" [
	<!ENTITY ns_extend "http://ns.adobe.com/Extensibility/1.0/">
	<!ENTITY ns_ai "http://ns.adobe.com/AdobeIllustrator/10.0/">
	<!ENTITY ns_graphs "http://ns.adobe.com/Graphs/1.0/">
	<!ENTITY ns_vars "http://ns.adobe.com/Variables/1.0/">
	<!ENTITY ns_imrep "http://ns.adobe.com/ImageReplacement/1.0/">
	<!ENTITY ns_sfw "http://ns.adobe.com/SaveForWeb/1.0/">
	<!ENTITY ns_custom "http://ns.adobe.com/GenericCustomNamespace/1.0/">
	<!ENTITY ns_adobe_xpath "http://ns.adobe.com/XPath/1.0/">
]>
<svg version="1.1" id="Layer_1" xmlns:x="&ns_extend;" xmlns:i="&ns_ai;" xmlns:graph="&ns_graphs;"
	 xmlns="http://www.w3.org/2000/svg" xmlns:xlink="http://www.w3.org/1999/xlink" x="0px" y="0px" width="145.474px"
	 height="145.474px" viewBox="0 0 145.474 145.474" enable-background="new 0 0 145.474 145.474" xml:space="preserve">
<metadata>
	<sfw  xmlns="&ns_sfw;">
		<slices></slices>
		<sliceSourceBounds  height="1292.581" width="1257.679" y="-1228.289" x="38.907" bottomLeftOrigin="true"></sliceSourceBounds>
		<optimizationSettings>
			<targetSettings  fileFormat="PNG24Format" targetSettingsID="0">
				<PNG24Format  transparency="true" filtered="false" matteColor="#FFFFFF" noMatteColor="false" interlaced="false">
					</PNG24Format>
			</targetSettings>
		</optimizationSettings>
	</sfw>
</metadata>
<g>
	<g>
		<polygon fill="none" stroke="#00B8D4" stroke-linejoin="bevel" stroke-miterlimit="10" points="95.078,46.547 108.885,63.897 
			72.737,98.928 36.589,63.897 50.397,46.547 57.763,50.214 		"/>
		<polyline fill="none" stroke="#00B8D4" stroke-linejoin="bevel" stroke-miterlimit="10" points="108.885,63.897 89.303,63.897 
			76.498,68.964 48.625,63.897 36.589,63.897 		"/>
		<polygon fill="none" stroke="#00B8D4" stroke-linejoin="bevel" stroke-miterlimit="10" points="72.737,98.928 48.625,63.897 
			79.285,60.349 95.078,46.547 		"/>
		
			<line fill="none" stroke="#00B8D4" stroke-linejoin="bevel" stroke-miterlimit="10" x1="50.397" y1="46.547" x2="48.625" y2="63.897"/>
		<path fill="none" stroke="#00B8D4" stroke-linejoin="bevel" stroke-miterlimit="10" d="M79.285,60.349"/>
		<polyline fill="none" stroke="#00B8D4" stroke-linejoin="bevel" stroke-miterlimit="10" points="57.763,50.214 79.285,60.349 
			76.498,68.964 72.737,98.928 		"/>
	</g>
	<g>
		<defs>
			<path id="SVGID_19_" d="M72.737,0C32.566,0,0,32.566,0,72.737s32.566,72.737,72.737,72.737s72.737-32.566,72.737-72.737
				S112.909,0,72.737,0z M72.737,120.7c-26.489,0-47.963-21.474-47.963-47.963s21.474-47.963,47.963-47.963
				S120.7,46.248,120.7,72.737S99.226,120.7,72.737,120.7z"/>
		</defs>
		<clipPath id="SVGID_2_">
			<use xlink:href="#SVGID_19_"  overflow="visible"/>
		</clipPath>
		
			<line clip-path="url(#SVGID_2_)" fill="none" stroke="#00B8D4" stroke-linejoin="bevel" stroke-miterlimit="10" x1="72.737" y1="72.737" x2="197.459" y2="72.737"/>
		
			<line clip-path="url(#SVGID_2_)" fill="none" stroke="#00B8D4" stroke-linejoin="bevel" stroke-miterlimit="10" x1="72.737" y1="72.737" x2="189.937" y2="30.08"/>
		
			<line clip-path="url(#SVGID_2_)" fill="none" stroke="#00B8D4" stroke-linejoin="bevel" stroke-miterlimit="10" x1="72.737" y1="72.738" x2="168.28" y2="-7.432"/>
		
			<line clip-path="url(#SVGID_2_)" fill="none" stroke="#00B8D4" stroke-linejoin="bevel" stroke-miterlimit="10" x1="72.737" y1="72.738" x2="135.098" y2="-35.274"/>
		
			<line clip-path="url(#SVGID_2_)" fill="none" stroke="#00B8D4" stroke-linejoin="bevel" stroke-miterlimit="10" x1="72.756" y1="72.74" x2="94.414" y2="-50.087"/>
		
			<line clip-path="url(#SVGID_2_)" fill="none" stroke="#00B8D4" stroke-linejoin="bevel" stroke-miterlimit="10" x1="72.756" y1="72.74" x2="51.098" y2="-50.087"/>
		
			<line clip-path="url(#SVGID_2_)" fill="none" stroke="#00B8D4" stroke-linejoin="bevel" stroke-miterlimit="10" x1="72.757" y1="72.74" x2="10.396" y2="-35.272"/>
		
			<line clip-path="url(#SVGID_2_)" fill="none" stroke="#00B8D4" stroke-linejoin="bevel" stroke-miterlimit="10" x1="72.757" y1="72.74" x2="-22.786" y2="-7.429"/>
		
			<line clip-path="url(#SVGID_2_)" fill="none" stroke="#00B8D4" stroke-linejoin="bevel" stroke-miterlimit="10" x1="72.765" y1="72.737" x2="-44.435" y2="30.08"/>
		
			<line clip-path="url(#SVGID_2_)" fill="none" stroke="#00B8D4" stroke-linejoin="bevel" stroke-miterlimit="10" x1="72.765" y1="72.737" x2="-51.956" y2="72.737"/>
		
			<line clip-path="url(#SVGID_2_)" fill="none" stroke="#00B8D4" stroke-linejoin="bevel" stroke-miterlimit="10" x1="72.765" y1="72.737" x2="-44.435" y2="115.394"/>
		
			<line clip-path="url(#SVGID_2_)" fill="none" stroke="#00B8D4" stroke-linejoin="bevel" stroke-miterlimit="10" x1="72.765" y1="72.737" x2="-22.777" y2="152.906"/>
		
			<line clip-path="url(#SVGID_2_)" fill="none" stroke="#00B8D4" stroke-linejoin="bevel" stroke-miterlimit="10" x1="72.749" y1="72.728" x2="10.388" y2="180.74"/>
		
			<line clip-path="url(#SVGID_2_)" fill="none" stroke="#00B8D4" stroke-linejoin="bevel" stroke-miterlimit="10" x1="72.749" y1="72.728" x2="51.091" y2="195.555"/>
		
			<line clip-path="url(#SVGID_2_)" fill="none" stroke="#00B8D4" stroke-linejoin="bevel" stroke-miterlimit="10" x1="72.748" y1="72.728" x2="94.406" y2="195.555"/>
		
			<line clip-path="url(#SVGID_2_)" fill="none" stroke="#00B8D4" stroke-linejoin="bevel" stroke-miterlimit="10" x1="72.748" y1="72.728" x2="135.109" y2="180.74"/>
		
			<line clip-path="url(#SVGID_2_)" fill="none" stroke="#00B8D4" stroke-linejoin="bevel" stroke-miterlimit="10" x1="72.737" y1="72.737" x2="168.28" y2="152.906"/>
		
			<line clip-path="url(#SVGID_2_)" fill="none" stroke="#00B8D4" stroke-linejoin="bevel" stroke-miterlimit="10" x1="72.737" y1="72.737" x2="189.937" y2="115.394"/>
	</g>
</g>
</svg>
