<?xml version="1.0" encoding="utf-8"?>
<!-- Generator: Adobe Illustrator 17.0.0, SVG Export Plug-In . SVG Version: 6.00 Build 0)  -->
<!DOCTYPE svg PUBLIC "-//W3C//DTD SVG 1.1//EN" "http://www.w3.org/Graphics/SVG/1.1/DTD/svg11.dtd" [
	<!ENTITY ns_extend "http://ns.adobe.com/Extensibility/1.0/">
	<!ENTITY ns_ai "http://ns.adobe.com/AdobeIllustrator/10.0/">
	<!ENTITY ns_graphs "http://ns.adobe.com/Graphs/1.0/">
	<!ENTITY ns_vars "http://ns.adobe.com/Variables/1.0/">
	<!ENTITY ns_imrep "http://ns.adobe.com/ImageReplacement/1.0/">
	<!ENTITY ns_sfw "http://ns.adobe.com/SaveForWeb/1.0/">
	<!ENTITY ns_custom "http://ns.adobe.com/GenericCustomNamespace/1.0/">
	<!ENTITY ns_adobe_xpath "http://ns.adobe.com/XPath/1.0/">
]>
<svg version="1.1" id="Layer_1" xmlns:x="&ns_extend;" xmlns:i="&ns_ai;" xmlns:graph="&ns_graphs;"
	 xmlns="http://www.w3.org/2000/svg" xmlns:xlink="http://www.w3.org/1999/xlink" x="0px" y="0px" width="71.844px"
	 height="71.844px" viewBox="0 0 71.844 71.844" enable-background="new 0 0 71.844 71.844" xml:space="preserve">
<metadata>
	<sfw  xmlns="&ns_sfw;">
		<slices></slices>
		<sliceSourceBounds  height="1292.581" width="1257.679" y="-1228.289" x="38.907" bottomLeftOrigin="true"></sliceSourceBounds>
		<optimizationSettings>
			<targetSettings  fileFormat="PNG24Format" targetSettingsID="0">
				<PNG24Format  transparency="true" filtered="false" matteColor="#FFFFFF" noMatteColor="false" interlaced="false">
					</PNG24Format>
			</targetSettings>
		</optimizationSettings>
	</sfw>
</metadata>
<g>
	<path fill="none" stroke="#0091EA" stroke-width="1.5" stroke-miterlimit="10" d="M71.094,61.094c0,5.5-4.5,10-10,10H10.75
		c-5.5,0-10-4.5-10-10V10.75c0-5.5,4.5-10,10-10h50.344c5.5,0,10,4.5,10,10V61.094z"/>
</g>
<path fill="none" stroke="#0091EA" stroke-width="1.5" stroke-miterlimit="10" d="M23.084,24.614l0.019,11.102H10.965v12.138h12.138
	v23.24h12.138v-23.24h12.138V35.716H35.241c0.007-9.554,0.001-10.94,5.908-11.102h6.249c0-0.11-0.011-0.217-0.016-0.325l0.016-2.598
	h-0.018v-9.214H35.61c-0.124-0.004-0.245-0.019-0.369-0.019C28.527,12.458,23.084,17.9,23.084,24.614"/>
</svg>
