<?xml version="1.0" encoding="utf-8"?>
<!-- Generator: Adobe Illustrator 17.0.0, SVG Export Plug-In . SVG Version: 6.00 Build 0)  -->
<!DOCTYPE svg PUBLIC "-//W3C//DTD SVG 1.1//EN" "http://www.w3.org/Graphics/SVG/1.1/DTD/svg11.dtd" [
	<!ENTITY ns_extend "http://ns.adobe.com/Extensibility/1.0/">
	<!ENTITY ns_ai "http://ns.adobe.com/AdobeIllustrator/10.0/">
	<!ENTITY ns_graphs "http://ns.adobe.com/Graphs/1.0/">
	<!ENTITY ns_vars "http://ns.adobe.com/Variables/1.0/">
	<!ENTITY ns_imrep "http://ns.adobe.com/ImageReplacement/1.0/">
	<!ENTITY ns_sfw "http://ns.adobe.com/SaveForWeb/1.0/">
	<!ENTITY ns_custom "http://ns.adobe.com/GenericCustomNamespace/1.0/">
	<!ENTITY ns_adobe_xpath "http://ns.adobe.com/XPath/1.0/">
]>
<svg version="1.1" id="Layer_1" xmlns:x="&ns_extend;" xmlns:i="&ns_ai;" xmlns:graph="&ns_graphs;"
	 xmlns="http://www.w3.org/2000/svg" xmlns:xlink="http://www.w3.org/1999/xlink" x="0px" y="0px" width="69.881px"
	 height="69.881px" viewBox="0 0 69.881 69.881" enable-background="new 0 0 69.881 69.881" xml:space="preserve">
<metadata>
	<sfw  xmlns="&ns_sfw;">
		<slices></slices>
		<sliceSourceBounds  height="1292.581" width="1257.679" y="-1228.289" x="38.907" bottomLeftOrigin="true"></sliceSourceBounds>
		<optimizationSettings>
			<targetSettings  fileFormat="PNG24Format" targetSettingsID="0">
				<PNG24Format  transparency="true" filtered="false" matteColor="#FFFFFF" noMatteColor="false" interlaced="false">
					</PNG24Format>
			</targetSettings>
		</optimizationSettings>
	</sfw>
</metadata>
<path fill="none" stroke="#B71C1C" stroke-width="1.5" stroke-miterlimit="10" d="M34.94,0.75c-18.883,0-34.19,15.308-34.19,34.191
	c0,18.883,15.308,34.19,34.19,34.19c18.883,0,34.191-15.307,34.191-34.19C69.131,16.058,53.823,0.75,34.94,0.75z M34.901,65.338
	c-3.134,0-6.156-0.475-9.001-1.356c1.239-2.019,3.092-5.329,3.778-7.969c0.369-1.422,1.894-7.226,1.894-7.226
	c0.991,1.89,3.887,3.491,6.967,3.491c9.168,0,15.773-8.431,15.773-18.907c0-10.042-8.195-17.556-18.739-17.556
	c-13.117,0-20.084,8.806-20.084,18.394c0,4.458,2.373,10.009,6.17,11.776c0.576,0.268,0.884,0.15,1.017-0.406
	c0.101-0.422,0.613-2.487,0.844-3.448c0.074-0.307,0.038-0.57-0.211-0.872c-1.256-1.523-2.262-4.324-2.262-6.937
	c0-6.704,5.077-13.191,13.725-13.191c7.468,0,12.697,5.089,12.697,12.367c0,8.223-4.153,13.92-9.556,13.92
	c-2.984,0-5.217-2.467-4.501-5.494c0.857-3.613,2.517-7.512,2.517-10.12c0-2.334-1.253-4.282-3.846-4.282
	c-3.05,0-5.5,3.156-5.5,7.382c0,2.692,0.909,4.513,0.909,4.513s-3.012,12.738-3.564,15.109c-0.611,2.626-0.371,6.315-0.105,8.72
	c-11.308-4.429-19.32-15.428-19.32-28.306c0-16.788,13.609-30.397,30.397-30.397s30.397,13.609,30.397,30.397
	S51.689,65.338,34.901,65.338z"/>
</svg>
