<?xml version="1.0" encoding="utf-8"?>
<!-- Generator: Adobe Illustrator 17.0.0, SVG Export Plug-In . SVG Version: 6.00 Build 0)  -->
<!DOCTYPE svg PUBLIC "-//W3C//DTD SVG 1.1//EN" "http://www.w3.org/Graphics/SVG/1.1/DTD/svg11.dtd" [
	<!ENTITY ns_extend "http://ns.adobe.com/Extensibility/1.0/">
	<!ENTITY ns_ai "http://ns.adobe.com/AdobeIllustrator/10.0/">
	<!ENTITY ns_graphs "http://ns.adobe.com/Graphs/1.0/">
	<!ENTITY ns_vars "http://ns.adobe.com/Variables/1.0/">
	<!ENTITY ns_imrep "http://ns.adobe.com/ImageReplacement/1.0/">
	<!ENTITY ns_sfw "http://ns.adobe.com/SaveForWeb/1.0/">
	<!ENTITY ns_custom "http://ns.adobe.com/GenericCustomNamespace/1.0/">
	<!ENTITY ns_adobe_xpath "http://ns.adobe.com/XPath/1.0/">
]>
<svg version="1.1" id="Layer_1" xmlns:x="&ns_extend;" xmlns:i="&ns_ai;" xmlns:graph="&ns_graphs;"
	 xmlns="http://www.w3.org/2000/svg" xmlns:xlink="http://www.w3.org/1999/xlink" x="0px" y="0px" width="70.903px"
	 height="71.034px" viewBox="0 0 70.903 71.034" enable-background="new 0 0 70.903 71.034" xml:space="preserve">
<metadata>
	<sfw  xmlns="&ns_sfw;">
		<slices></slices>
		<sliceSourceBounds  height="1292.581" width="1257.679" y="-1228.289" x="38.907" bottomLeftOrigin="true"></sliceSourceBounds>
		<optimizationSettings>
			<targetSettings  fileFormat="PNG24Format" targetSettingsID="0">
				<PNG24Format  transparency="true" filtered="false" matteColor="#FFFFFF" noMatteColor="false" interlaced="false">
					</PNG24Format>
			</targetSettings>
		</optimizationSettings>
	</sfw>
</metadata>
<path fill="none" stroke="#0097A7" stroke-width="1.5" stroke-miterlimit="10" d="M62.337,0.75H8.566
	c-4.299,0-7.816,3.517-7.816,7.816v53.902c0,4.299,3.517,7.816,7.816,7.816h53.772c4.299,0,7.816-3.517,7.816-7.816V8.566
	C70.153,4.267,66.636,0.75,62.337,0.75z M40.914,55.853c-9.448,0.163-13.026-6.73-13.026-11.582V30.102h-4.389V24.5
	c6.58-2.373,8.162-8.307,8.533-11.688c0.026-0.232,0.208-0.324,0.313-0.324c0.102,0,6.351,0,6.351,0v11.048h8.679v6.566h-8.709
	v13.501c0.028,1.835,0.702,4.367,4.174,4.274c1.15-0.029,2.692-0.363,3.499-0.748l2.086,6.184
	C47.642,54.464,44.102,55.798,40.914,55.853z"/>
</svg>
