<?xml version="1.0" encoding="utf-8"?>
<!-- Generator: Adobe Illustrator 17.0.0, SVG Export Plug-In . SVG Version: 6.00 Build 0)  -->
<!DOCTYPE svg PUBLIC "-//W3C//DTD SVG 1.1//EN" "http://www.w3.org/Graphics/SVG/1.1/DTD/svg11.dtd" [
	<!ENTITY ns_extend "http://ns.adobe.com/Extensibility/1.0/">
	<!ENTITY ns_ai "http://ns.adobe.com/AdobeIllustrator/10.0/">
	<!ENTITY ns_graphs "http://ns.adobe.com/Graphs/1.0/">
	<!ENTITY ns_vars "http://ns.adobe.com/Variables/1.0/">
	<!ENTITY ns_imrep "http://ns.adobe.com/ImageReplacement/1.0/">
	<!ENTITY ns_sfw "http://ns.adobe.com/SaveForWeb/1.0/">
	<!ENTITY ns_custom "http://ns.adobe.com/GenericCustomNamespace/1.0/">
	<!ENTITY ns_adobe_xpath "http://ns.adobe.com/XPath/1.0/">
]>
<svg version="1.1" id="Layer_1" xmlns:x="&ns_extend;" xmlns:i="&ns_ai;" xmlns:graph="&ns_graphs;"
	 xmlns="http://www.w3.org/2000/svg" xmlns:xlink="http://www.w3.org/1999/xlink" x="0px" y="0px" width="74.665px"
	 height="57.945px" viewBox="0 0 74.665 57.945" enable-background="new 0 0 74.665 57.945" xml:space="preserve">
<metadata>
	<sfw  xmlns="&ns_sfw;">
		<slices></slices>
		<sliceSourceBounds  height="1292.581" width="1257.679" y="-1228.289" x="38.907" bottomLeftOrigin="true"></sliceSourceBounds>
		<optimizationSettings>
			<targetSettings  fileFormat="PNG24Format" targetSettingsID="0">
				<PNG24Format  transparency="true" filtered="false" matteColor="#FFFFFF" noMatteColor="false" interlaced="false">
					</PNG24Format>
			</targetSettings>
		</optimizationSettings>
	</sfw>
</metadata>
<g>
	<path fill="none" stroke="#00E5FF" stroke-width="1.5" stroke-miterlimit="10" d="M24.991,57.195
		c-8.047,0-15.537-2.359-21.843-6.402c1.115,0.132,2.249,0.199,3.399,0.199c6.676,0,12.82-2.278,17.697-6.1
		c-6.236-0.115-11.498-4.235-13.311-9.896c0.87,0.166,1.763,0.256,2.681,0.256c1.3,0,2.558-0.174,3.754-0.5
		C10.849,33.443,5.937,27.684,5.937,20.78c0-0.06,0-0.12,0.001-0.179c1.921,1.067,4.118,1.708,6.454,1.782
		c-3.823-2.555-6.339-6.917-6.339-11.861c0-2.612,0.703-5.059,1.929-7.164C15.01,11.98,25.51,17.653,37.353,18.247
		c-0.243-1.043-0.369-2.13-0.369-3.247c0-7.869,6.38-14.249,14.25-14.249c4.098,0,7.802,1.73,10.401,4.5
		c3.246-0.639,6.295-1.825,9.049-3.458c-1.064,3.328-3.323,6.12-6.266,7.884c2.883-0.344,5.629-1.111,8.184-2.244
		c-1.91,2.858-4.327,5.367-7.11,7.376c0.027,0.611,0.041,1.226,0.041,1.843C65.534,35.482,51.201,57.195,24.991,57.195"/>
</g>
</svg>
