<?xml version="1.0" encoding="utf-8"?>
<!-- Generator: Adobe Illustrator 17.0.0, SVG Export Plug-In . SVG Version: 6.00 Build 0)  -->
<!DOCTYPE svg PUBLIC "-//W3C//DTD SVG 1.1//EN" "http://www.w3.org/Graphics/SVG/1.1/DTD/svg11.dtd" [
	<!ENTITY ns_extend "http://ns.adobe.com/Extensibility/1.0/">
	<!ENTITY ns_ai "http://ns.adobe.com/AdobeIllustrator/10.0/">
	<!ENTITY ns_graphs "http://ns.adobe.com/Graphs/1.0/">
	<!ENTITY ns_vars "http://ns.adobe.com/Variables/1.0/">
	<!ENTITY ns_imrep "http://ns.adobe.com/ImageReplacement/1.0/">
	<!ENTITY ns_sfw "http://ns.adobe.com/SaveForWeb/1.0/">
	<!ENTITY ns_custom "http://ns.adobe.com/GenericCustomNamespace/1.0/">
	<!ENTITY ns_adobe_xpath "http://ns.adobe.com/XPath/1.0/">
]>
<svg version="1.1" id="Layer_1" xmlns:x="&ns_extend;" xmlns:i="&ns_ai;" xmlns:graph="&ns_graphs;"
	 xmlns="http://www.w3.org/2000/svg" xmlns:xlink="http://www.w3.org/1999/xlink" x="0px" y="0px" width="63.567px"
	 height="72.179px" viewBox="0 0 63.567 72.179" enable-background="new 0 0 63.567 72.179" xml:space="preserve">
<metadata>
	<sfw  xmlns="&ns_sfw;">
		<slices></slices>
		<sliceSourceBounds  height="1292.581" width="1257.679" y="-1228.289" x="38.907" bottomLeftOrigin="true"></sliceSourceBounds>
		<optimizationSettings>
			<targetSettings  fileFormat="PNG24Format" targetSettingsID="0">
				<PNG24Format  transparency="true" filtered="false" matteColor="#FFFFFF" noMatteColor="false" interlaced="false">
					</PNG24Format>
			</targetSettings>
		</optimizationSettings>
	</sfw>
</metadata>
<path fill="none" stroke="#00F488" stroke-width="1.5" stroke-miterlimit="10" d="M62.817,35.887
	c-1.821,0.42-3.582,0.605-5.167,0.605c-8.918,0-15.783-6.228-15.783-17.057c0-5.308,2.052-8.068,4.954-8.068
	c2.761,0,4.601,2.477,4.601,7.502c0,2.857-0.765,5.989-1.33,7.841c0,0,2.748,4.794,10.262,3.323
	c1.596-3.542,2.463-8.13,2.463-12.154c0-10.829-5.521-17.128-15.642-17.128c-10.404,0-16.491,7.998-16.491,18.544
	c0,10.447,4.884,19.415,12.937,23.501c-3.386,6.774-7.695,12.741-12.189,17.237c-8.153-9.856-15.524-23.005-18.549-48.666H0.854
	C6.411,54.102,22.973,67.71,27.352,70.323c2.477,1.486,4.61,1.416,6.875,0.141c3.556-2.022,14.232-12.696,20.149-25.199
	c2.484-0.007,5.468-0.292,8.44-0.964V35.887z"/>
</svg>
