<?xml version="1.0" encoding="utf-8"?>
<!-- Generator: Adobe Illustrator 17.0.0, SVG Export Plug-In . SVG Version: 6.00 Build 0)  -->
<!DOCTYPE svg PUBLIC "-//W3C//DTD SVG 1.1//EN" "http://www.w3.org/Graphics/SVG/1.1/DTD/svg11.dtd" [
	<!ENTITY ns_extend "http://ns.adobe.com/Extensibility/1.0/">
	<!ENTITY ns_ai "http://ns.adobe.com/AdobeIllustrator/10.0/">
	<!ENTITY ns_graphs "http://ns.adobe.com/Graphs/1.0/">
	<!ENTITY ns_vars "http://ns.adobe.com/Variables/1.0/">
	<!ENTITY ns_imrep "http://ns.adobe.com/ImageReplacement/1.0/">
	<!ENTITY ns_sfw "http://ns.adobe.com/SaveForWeb/1.0/">
	<!ENTITY ns_custom "http://ns.adobe.com/GenericCustomNamespace/1.0/">
	<!ENTITY ns_adobe_xpath "http://ns.adobe.com/XPath/1.0/">
]>
<svg version="1.1" id="Layer_1" xmlns:x="&ns_extend;" xmlns:i="&ns_ai;" xmlns:graph="&ns_graphs;"
	 xmlns="http://www.w3.org/2000/svg" xmlns:xlink="http://www.w3.org/1999/xlink" x="0px" y="0px" width="422.186px"
	 height="227.219px" viewBox="0 0 422.186 227.219" enable-background="new 0 0 422.186 227.219" xml:space="preserve">
<metadata>
	<sfw  xmlns="&ns_sfw;">
		<slices></slices>
		<sliceSourceBounds  height="1292.581" width="1257.679" y="-1228.289" x="38.907" bottomLeftOrigin="true"></sliceSourceBounds>
		<optimizationSettings>
			<targetSettings  fileFormat="PNG24Format" targetSettingsID="0">
				<PNG24Format  transparency="true" filtered="false" matteColor="#FFFFFF" noMatteColor="false" interlaced="false">
					</PNG24Format>
			</targetSettings>
		</optimizationSettings>
	</sfw>
</metadata>
<g>
	<g>
		<g>
			<defs>
				<rect id="SVGID_1_" x="361.569" y="199.792" width="44.184" height="18.579"/>
			</defs>
			<clipPath id="SVGID_2_">
				<use xlink:href="#SVGID_1_"  overflow="visible"/>
			</clipPath>
		</g>
	</g>
	<g>
		<g>
			<g>
				<g>
					<path fill="none" stroke="#F44336" stroke-miterlimit="10" d="M321.349,148.105c0,3.85-3.15,7-7,7h-246c-3.85,0-7-3.15-7-7
						V15.855c0-3.85,3.15-7,7-7h246c3.85,0,7,3.15,7,7V148.105z"/>
				</g>
				<g>
					<path fill="none" stroke="#F44336" stroke-miterlimit="10" d="M331.003,179.522c0,3.85-3.15,7-7,7H58.696c-3.85,0-7-3.15-7-7
						V7.5c0-3.85,3.15-7,7-7h265.307c3.85,0,7,3.15,7,7V179.522z"/>
				</g>
				<line fill="none" stroke="#F44336" stroke-miterlimit="10" x1="191.349" y1="186.522" x2="191.349" y2="223.788"/>
				<line fill="none" stroke="#F44336" stroke-miterlimit="10" x1="142.696" y1="223.788" x2="240.003" y2="223.788"/>
			</g>
			<line fill="none" stroke="#F44336" stroke-miterlimit="10" x1="88.529" y1="38.322" x2="294.169" y2="38.322"/>
			<circle fill="none" stroke="#F44336" stroke-miterlimit="10" cx="287.669" cy="24.516" r="6.5"/>
			<circle fill="none" stroke="#F44336" stroke-miterlimit="10" cx="269.079" cy="24.516" r="6.5"/>
			<circle fill="none" stroke="#F44336" stroke-miterlimit="10" cx="250.488" cy="24.516" r="6.5"/>
			<rect x="203.278" y="44.93" fill="none" stroke="#F44336" stroke-miterlimit="10" width="90.892" height="97.5"/>
			<rect x="88.529" y="44.93" fill="none" stroke="#F44336" stroke-miterlimit="10" width="95.249" height="22.1"/>
			<rect x="88.529" y="120.33" fill="none" stroke="#F44336" stroke-miterlimit="10" width="95.249" height="22.1"/>
			<polygon fill="none" stroke="#F44336" stroke-miterlimit="10" points="88.529,71.58 88.529,93.68 88.529,115.78 183.778,115.78 
				183.778,93.68 183.778,71.58 			"/>
		</g>
		<g>
			<path fill="none" stroke="#F44336" stroke-miterlimit="10" d="M3.501,218.344c-1.65,0-3-1.35-3-3v-59c0-1.65,1.35-3,3-3h30.562
				c1.65,0,3,1.35,3,3v59c0,1.65-1.35,3-3,3H3.501z"/>
		</g>
		<g>
			<path fill="none" stroke="#F44336" stroke-miterlimit="10" d="M3.5,225.169c-1.65,0-3-1.35-3-3v-72.65c0-1.65,1.35-3,3-3h30.562
				c1.65,0,3,1.35,3,3v72.65c0,1.65-1.35,3-3,3H3.5z"/>
		</g>
		<circle fill="none" stroke="#F44336" stroke-miterlimit="10" cx="18.781" cy="221.709" r="3.365"/>
		<circle fill="none" stroke="#F44336" stroke-miterlimit="10" cx="18.781" cy="169.547" r="4.665"/>
		<line fill="none" stroke="#F44336" stroke-miterlimit="10" x1="14.117" y1="160.332" x2="23.446" y2="160.332"/>
		<line fill="none" stroke="#F44336" stroke-miterlimit="10" x1="8.354" y1="179.561" x2="29.209" y2="179.561"/>
		<line fill="none" stroke="#F44336" stroke-miterlimit="10" x1="14.116" y1="184.707" x2="23.446" y2="184.707"/>
		<g>
			<path fill="none" stroke="#F44336" stroke-miterlimit="10" d="M349.636,218.344c-2.2,0-4-1.8-4-4v-93.4c0-2.2,1.8-4,4-4h68.05
				c2.2,0,4,1.8,4,4v93.4c0,2.2-1.8,4-4,4H349.636z"/>
		</g>
		<g>
			<path fill="none" stroke="#F44336" stroke-miterlimit="10" d="M349.635,225.074c-2.2,0-4-1.8-4-4v-106.86c0-2.2,1.8-4,4-4h68.05
				c2.2,0,4,1.8,4,4v106.86c0,2.2-1.8,4-4,4H349.635z"/>
		</g>
		<circle fill="none" stroke="#F44336" stroke-miterlimit="10" cx="383.66" cy="221.709" r="3.365"/>
		<rect x="8.354" y="190.232" fill="none" stroke="#F44336" stroke-miterlimit="10" width="10.428" height="8.125"/>
		<rect x="22.146" y="190.232" fill="none" stroke="#F44336" stroke-miterlimit="10" width="6.514" height="8.125"/>
		<rect x="18.232" y="203.232" fill="none" stroke="#F44336" stroke-miterlimit="10" width="10.428" height="8.125"/>
		<rect x="8.354" y="203.232" fill="none" stroke="#F44336" stroke-miterlimit="10" width="6.514" height="8.125"/>
		<path fill="none" stroke="#F44336" stroke-miterlimit="10" d="M395.31,127.325h-23.299c-4.124,0-7.467,3.343-7.467,7.467
			s3.343,7.467,7.467,7.467h23.299c4.124,0,7.467-3.343,7.467-7.467S399.434,127.325,395.31,127.325z"/>
		<line fill="none" stroke="#F44336" stroke-miterlimit="10" x1="364.544" y1="148.93" x2="402.778" y2="148.93"/>
		<line fill="none" stroke="#F44336" stroke-miterlimit="10" x1="364.543" y1="154.293" x2="402.778" y2="154.293"/>
		<line fill="none" stroke="#F44336" stroke-miterlimit="10" x1="364.543" y1="159.655" x2="402.778" y2="159.655"/>
		<line fill="none" stroke="#F44336" stroke-miterlimit="10" x1="364.543" y1="165.018" x2="383.661" y2="165.018"/>
		<rect x="390.803" y="172.493" fill="none" stroke="#F44336" stroke-miterlimit="10" width="11.975" height="27.3"/>
		<rect x="364.544" y="172.493" fill="none" stroke="#F44336" stroke-miterlimit="10" width="21.546" height="27.3"/>
		<g>
			<defs>
				<rect id="SVGID_3_" x="361.569" y="199.792" width="44.184" height="18.579"/>
			</defs>
			<clipPath id="SVGID_4_">
				<use xlink:href="#SVGID_3_"  overflow="visible"/>
			</clipPath>
			
				<rect x="364.544" y="204.694" clip-path="url(#SVGID_4_)" fill="none" stroke="#F44336" stroke-miterlimit="10" width="11.975" height="27.3"/>
			
				<rect x="381.231" y="204.694" clip-path="url(#SVGID_4_)" fill="none" stroke="#F44336" stroke-miterlimit="10" width="21.546" height="27.3"/>
			<use xlink:href="#SVGID_3_"  overflow="visible" fill="none" stroke="#F44336" stroke-miterlimit="10"/>
		</g>
		<line fill="none" stroke="#F44336" stroke-miterlimit="10" x1="409.278" y1="124.122" x2="415.778" y2="124.122"/>
		<line fill="none" stroke="#F44336" stroke-miterlimit="10" x1="409.278" y1="121.793" x2="415.778" y2="121.793"/>
		<line fill="none" stroke="#F44336" stroke-miterlimit="10" x1="409.278" y1="124.122" x2="415.778" y2="124.122"/>
		<line fill="none" stroke="#F44336" stroke-miterlimit="10" x1="409.278" y1="126.451" x2="415.778" y2="126.451"/>
		<line fill="none" stroke="#F44336" stroke-miterlimit="10" x1="409.278" y1="126.451" x2="415.778" y2="126.451"/>
	</g>
	<g>
		<g>
			<defs>
				<rect id="SVGID_5_" x="361.569" y="199.792" width="44.184" height="18.579"/>
			</defs>
			<clipPath id="SVGID_6_">
				<use xlink:href="#SVGID_5_"  overflow="visible"/>
			</clipPath>
		</g>
	</g>
</g>
</svg>
