<?xml version="1.0" encoding="utf-8"?>
<!-- Generator: Adobe Illustrator 17.0.0, SVG Export Plug-In . SVG Version: 6.00 Build 0)  -->
<!DOCTYPE svg PUBLIC "-//W3C//DTD SVG 1.1//EN" "http://www.w3.org/Graphics/SVG/1.1/DTD/svg11.dtd" [
	<!ENTITY ns_extend "http://ns.adobe.com/Extensibility/1.0/">
	<!ENTITY ns_ai "http://ns.adobe.com/AdobeIllustrator/10.0/">
	<!ENTITY ns_graphs "http://ns.adobe.com/Graphs/1.0/">
	<!ENTITY ns_vars "http://ns.adobe.com/Variables/1.0/">
	<!ENTITY ns_imrep "http://ns.adobe.com/ImageReplacement/1.0/">
	<!ENTITY ns_sfw "http://ns.adobe.com/SaveForWeb/1.0/">
	<!ENTITY ns_custom "http://ns.adobe.com/GenericCustomNamespace/1.0/">
	<!ENTITY ns_adobe_xpath "http://ns.adobe.com/XPath/1.0/">
]>
<svg version="1.1" id="Layer_1" xmlns:x="&ns_extend;" xmlns:i="&ns_ai;" xmlns:graph="&ns_graphs;"
	 xmlns="http://www.w3.org/2000/svg" xmlns:xlink="http://www.w3.org/1999/xlink" x="0px" y="0px" width="63.834px"
	 height="63.834px" viewBox="0 0 63.834 63.834" enable-background="new 0 0 63.834 63.834" xml:space="preserve">
<metadata>
	<sfw  xmlns="&ns_sfw;">
		<slices></slices>
		<sliceSourceBounds  height="1292.581" width="1257.679" y="-1228.289" x="38.907" bottomLeftOrigin="true"></sliceSourceBounds>
		<optimizationSettings>
			<targetSettings  fileFormat="PNG24Format" targetSettingsID="0">
				<PNG24Format  transparency="true" filtered="false" matteColor="#FFFFFF" noMatteColor="false" interlaced="false">
					</PNG24Format>
			</targetSettings>
		</optimizationSettings>
	</sfw>
</metadata>
<g>
	<g>
		<path fill="none" stroke="#CFD8DC" stroke-width="1.5" stroke-miterlimit="10" d="M31.917,0.75
			C14.731,0.75,0.75,14.731,0.75,31.916c0,17.186,13.981,31.168,31.167,31.168c17.185,0,31.167-13.983,31.167-31.168
			C63.084,14.731,49.102,0.75,31.917,0.75 M3.895,31.916c0-4.063,0.871-7.919,2.426-11.404l13.367,36.623
			C10.34,52.593,3.895,43.007,3.895,31.916 M31.917,59.94c-2.751,0-5.405-0.403-7.916-1.142l8.408-24.431l8.613,23.598
			c0.057,0.139,0.126,0.266,0.201,0.386C38.309,59.376,35.18,59.94,31.917,59.94 M35.778,18.778
			c1.687-0.089,3.207-0.266,3.207-0.266c1.51-0.179,1.332-2.398-0.179-2.309c0,0-4.539,0.356-7.469,0.356
			c-2.753,0-7.38-0.356-7.38-0.356c-1.511-0.088-1.688,2.22-0.178,2.309c0,0,1.429,0.177,2.939,0.266l4.365,11.962l-6.133,18.391
			L14.748,18.778c1.688-0.089,3.207-0.266,3.207-0.266c1.509-0.179,1.331-2.398-0.179-2.309c0,0-4.538,0.356-7.468,0.356
			c-0.526,0-1.145-0.013-1.803-0.034c5.01-7.607,13.622-12.63,23.413-12.63c7.295,0,13.937,2.789,18.922,7.357
			c-0.121-0.007-0.238-0.022-0.363-0.022c-2.753,0-4.706,2.398-4.706,4.973c0,2.309,1.332,4.263,2.753,6.572
			c1.066,1.866,2.31,4.264,2.31,7.728c0,2.398-0.922,5.181-2.132,9.059L45.905,48.9L35.778,18.778z M56.506,18.473
			c2.187,3.991,3.432,8.571,3.432,13.443c0,10.338-5.602,19.363-13.933,24.221l8.559-24.746c1.599-3.998,2.131-7.194,2.131-10.036
			C56.694,20.323,56.626,19.365,56.506,18.473"/>
	</g>
</g>
</svg>
